<svg width="59" height="66" viewBox="0 0 59 66" fill="none" xmlns="http://www.w3.org/2000/svg">
<path d="M48.3122 8.38203C48.0885 8.3777 47.7566 8.26088 47.5381 8.14327C41.4781 4.90797 36.0518 3.46919 29.5974 3.34424C23.1431 3.21929 16.9927 4.65772 11.4823 7.55863C10.6952 7.98796 9.69955 7.63451 9.27021 6.84745C8.84088 6.06039 9.19433 5.0647 9.98139 4.63537C16.0478 1.52443 22.7603 -0.1269 29.6591 0.0066565C36.5578 0.140212 42.5376 1.81348 49.151 5.28327C49.9208 5.74275 50.2355 6.75137 49.776 7.52122C49.5415 8.07165 48.9773 8.39491 48.3122 8.38203ZM1.57425 24.6216C1.2402 24.6152 0.908285 24.4983 0.691903 24.2704C-0.0757562 23.6976 -0.166769 22.6963 0.290572 22.0368C3.6031 17.5358 7.79101 14.0543 12.6224 11.7012C22.963 6.66796 35.9841 6.80965 46.117 12.3496C50.967 14.8932 54.9037 18.5319 58.0425 23.1578C58.5873 23.8367 58.3421 24.9449 57.555 25.3742C56.7657 25.9169 55.7679 25.6738 55.3386 24.8867C52.5252 20.7147 48.9161 17.4165 44.5062 15.1023C35.2513 10.1372 23.3448 9.90672 14.0151 14.512C9.52201 16.6508 5.78583 19.9173 2.81218 23.8669C2.58287 24.307 2.13199 24.6324 1.57425 24.6216ZM21.0707 64.1872C20.6263 64.1786 20.184 64.0596 19.9668 63.7213C17.2379 60.8846 15.7176 58.9635 13.568 55.0252C11.4205 50.9765 10.2895 46.0553 10.3907 40.8268C10.6885 31.1444 19.0764 23.403 29.2023 23.599C39.3282 23.795 47.4102 31.8554 47.2249 41.4265C47.2077 42.3153 46.5245 43.0838 45.5223 43.0644C44.6335 43.0472 43.865 42.364 43.8844 41.3618C44.1456 33.5734 37.48 27.101 29.1347 26.9395C20.7894 26.7779 13.8782 32.9905 13.7252 40.8914C13.6347 45.5651 14.5529 49.9242 16.4874 53.4138C18.5288 57.2396 19.8348 58.8224 22.3444 61.431C22.9995 62.1121 22.9801 63.1142 22.2991 63.7694C21.9638 63.9807 21.5151 64.1958 21.0707 64.1872ZM44.5556 58.6297C40.6604 58.5543 37.3423 57.4875 34.5961 55.5427C29.8745 52.2229 27.0848 46.825 27.1947 41.1491C27.2119 40.2603 27.8951 39.4918 28.8973 39.5112C29.8994 39.5306 30.5546 40.2117 30.5352 41.2138C30.4468 45.7772 32.7012 50.1621 36.6551 52.9091C38.9633 54.5113 41.6176 55.3444 44.8448 55.4069C45.6233 55.422 46.9616 55.3375 48.1888 55.1374C49.0797 55.0443 49.8504 55.6142 50.0539 56.5103C50.147 57.4012 49.5771 58.1719 48.6811 58.3754C46.5592 58.5551 45 58.6383 44.5556 58.6297ZM37.8587 65.1776C37.7484 65.1754 37.5247 65.1711 37.4165 65.0586C32.3263 63.513 28.9121 61.5552 25.4177 58.0354C20.9427 53.3837 18.6103 47.3263 18.7331 40.9853C18.8343 35.7539 23.3684 31.5003 28.9339 31.6081C34.4994 31.7158 38.8676 36.0313 38.7642 41.3731C38.6974 44.824 41.6448 47.7752 45.4297 47.8485C49.2146 47.9218 52.272 45.1972 52.3409 41.636C52.5779 29.3954 42.1964 19.2855 29.2877 19.0356C20.0506 18.8567 11.4959 23.8112 7.5558 31.7522C6.28126 34.3979 5.55495 37.3914 5.4882 40.8393C5.43866 43.3984 5.58481 47.4083 7.48699 52.5682C7.80383 53.4635 7.34216 54.3467 6.55723 54.6657C5.66195 54.9825 4.77876 54.5208 4.45978 53.7359C2.98475 49.4764 2.28518 45.232 2.3692 40.8923C2.44461 36.997 3.29201 33.4509 4.79671 30.4754C9.31088 21.546 18.9962 15.8317 29.4562 16.0342C44.2558 16.3207 56.0559 27.9052 55.7845 41.9264C55.6832 47.1579 51.1492 51.4114 45.5836 51.3037C40.0181 51.1959 35.6521 46.7701 35.7534 41.5386C35.8202 38.0877 32.8727 35.1365 29.0878 35.0632C25.3029 34.9899 22.2455 37.7146 22.1766 41.2758C22.0689 46.8413 24.0823 52.1107 28.0125 56.0836C31.0712 59.1474 33.9298 60.984 38.4695 62.2982C39.3539 62.5391 39.7841 63.4366 39.5432 64.324C39.2057 64.6487 38.5268 65.1905 37.8587 65.1776Z" fill="#F2F2F2"/>
</svg>
