<svg width="60" height="48" viewBox="0 0 60 48" fill="none" xmlns="http://www.w3.org/2000/svg">
<path d="M53.2146 11.9862C53.2399 12.4993 53.2494 13.0187 53.2494 13.5317C53.2494 29.3357 41.2238 47.553 19.2344 47.553C12.4789 47.553 6.19852 45.5736 0.90625 42.1784C4.03656 42.557 7.21079 42.3149 10.2475 41.4661C13.2842 40.6172 16.1239 39.1782 18.6042 37.2314C16.1098 37.1842 13.6925 36.3588 11.6903 34.8704C9.68801 33.3821 8.20091 31.3053 7.43687 28.9303C9.22966 29.2656 11.0748 29.1952 12.8368 28.7245C10.1309 28.1758 7.69784 26.7084 5.95005 24.571C4.20226 22.4336 3.24722 19.7576 3.24676 16.9966V16.8477C4.90696 17.7713 6.76374 18.2849 8.66255 18.3458C6.12844 16.6564 4.33459 14.0636 3.64714 11.0966C2.95968 8.12954 3.43044 5.01202 4.96334 2.38029C7.96511 6.07462 11.7104 9.09619 15.9561 11.2487C20.2017 13.4013 24.8526 14.6367 29.6068 14.8746C29.4011 13.9803 29.298 13.0654 29.2996 12.1477C29.2996 10.5782 29.6087 9.02407 30.2095 7.57408C30.8102 6.12408 31.6907 4.80663 32.8006 3.69697C33.9106 2.5873 35.2283 1.70717 36.6784 1.10683C38.1286 0.506498 39.6828 0.19772 41.2523 0.198136C42.888 0.195468 44.5068 0.528911 46.0083 1.17778C47.5098 1.82665 48.862 2.7771 49.9809 3.97019C52.6576 3.44032 55.2247 2.45932 57.5725 1.0691C56.6795 3.83781 54.8112 6.18788 52.3151 7.68206C54.6849 7.40112 56.9993 6.767 59.1814 5.80079C57.5784 8.20286 55.5574 10.2978 53.2146 11.9862Z" fill="#6B7B42"/>
</svg>
