<svg width="104" height="117" viewBox="0 0 104 117" fill="none" xmlns="http://www.w3.org/2000/svg">
<path d="M19.2807 7.44537L19.2806 7.44529L19.2749 7.44815C17.7601 8.20647 17.0071 10.0732 17.78 11.617C18.538 13.1313 20.4037 13.8843 21.9472 13.1128C31.7456 8.38807 42.5723 6.25496 53.8363 6.87063C65.1004 7.48631 74.4848 10.3312 84.8744 16.3579C85.2666 16.587 85.8807 16.8332 86.3285 16.8577C87.5702 16.9255 88.6809 16.36 89.1802 15.3111C90.104 13.8622 89.5579 11.9342 88.1394 11.0183L88.1396 11.018L88.1277 11.0112C76.7211 4.5039 66.3056 1.1879 54.1779 0.525016C42.0505 -0.137844 30.1417 2.35081 19.2807 7.44537ZM1.12909 37.419L1.12901 37.4189L1.1248 37.4246C0.20831 38.6515 0.314134 40.5555 1.71769 41.6959C2.13814 42.1605 2.77514 42.3997 3.40173 42.434C4.4782 42.4928 5.36682 41.8982 5.83889 41.0795C11.2714 34.3743 17.9867 28.9127 25.9462 25.4623L25.9462 25.4623L25.9495 25.4608C42.5129 17.9988 63.2835 19.1335 79.1296 28.3681L79.1316 28.3693C86.6774 32.6749 92.7679 38.646 97.4198 46.0946C98.1942 47.6263 100.084 48.1487 101.616 47.1812C103.141 46.4089 103.692 44.3206 102.691 42.9673C97.456 34.6377 90.7538 27.9893 82.3749 23.2108C64.8847 12.8323 41.9852 11.7768 23.478 19.9916L23.4779 19.9916C14.8263 23.8342 7.23827 29.7031 1.12909 37.419ZM22.3341 96.3267L22.3355 96.3294C25.8671 103.38 28.4246 106.859 33.0356 112.005C33.4673 112.708 34.3397 112.947 35.1299 112.99C35.9835 113.037 36.8363 112.656 37.4484 112.3L37.4705 112.287L37.4895 112.27C38.8265 111.072 38.9311 109.158 37.7327 107.821C33.5075 103.108 31.3302 100.271 28.0004 93.4635L27.9986 93.46C24.8477 87.2714 23.5122 79.6199 23.9578 71.4668C24.706 57.7798 37.0719 47.4078 51.5668 48.2001C66.0641 48.9925 77.2216 60.6463 76.2932 74.1247L76.293 74.1283C76.189 76.0325 77.6113 77.3851 79.2948 77.4771C81.199 77.5812 82.5516 76.1588 82.6436 74.4754C83.5681 57.5615 69.7826 42.8262 51.9192 41.8498C34.054 40.8733 18.748 54.0196 17.6179 71.1174L17.6177 71.1203C17.1151 80.3166 18.7999 89.0553 22.3341 96.3267ZM83.2188 98.3046L83.2116 98.3051L83.2045 98.306C81.0546 98.579 78.7187 98.6436 77.3716 98.57C71.7627 98.2634 67.2104 96.6535 63.3071 93.7351C56.6109 88.7241 52.9705 80.9778 53.4027 73.071C53.4538 72.1366 53.1848 71.3214 52.6506 70.7254C52.1164 70.1294 51.3354 69.7732 50.401 69.7222C48.4967 69.6181 47.1441 71.0404 47.0521 72.7239C46.5041 82.7509 51.099 92.4634 59.2339 98.623C63.971 102.235 69.7704 104.325 76.6383 104.7C77.432 104.744 80.1832 104.693 83.9111 104.51L83.9284 104.509L83.9455 104.505C85.6471 104.182 86.7871 102.758 86.6697 101.058L86.6687 101.043L86.6659 101.029C86.3422 99.3272 84.9184 98.1873 83.2188 98.3046ZM42.9571 102.393L42.9598 102.396C48.8866 108.802 54.775 112.464 63.6058 115.496C63.7449 115.621 63.9235 115.681 64.0668 115.713C64.2319 115.749 64.395 115.758 64.4908 115.763L64.4951 115.764C65.146 115.799 65.7925 115.565 66.3403 115.267C66.8914 114.968 67.3661 114.59 67.6809 114.308L67.7324 114.262L67.7528 114.196C68.2643 112.545 67.5188 110.791 65.8332 110.267C58.0021 107.697 53.1408 104.326 47.996 98.7959C41.4003 91.641 38.2185 82.347 38.7478 72.663C39.0803 66.5792 44.4739 62.0809 50.9826 62.4366C57.4883 62.7922 62.352 68.0423 62.0299 73.9355C61.521 83.2461 69.0157 91.3828 78.893 91.9227C88.7702 92.4626 97.1071 85.1911 97.616 75.8806C98.9666 51.17 78.8795 30.0296 52.8317 28.6059C34.4183 27.5994 16.9958 37.063 8.48298 52.5235C5.64134 57.6827 3.92824 63.8835 3.55351 70.7393C3.13633 78.3718 4.10438 85.8843 6.43475 93.4681L6.43442 93.4682L6.43895 93.4805C6.99316 94.9953 8.64517 95.9345 10.3678 95.3924L10.3678 95.3927L10.3786 95.3887C11.8933 94.8345 12.8326 93.1825 12.2905 91.4599L12.2895 91.4568C9.28704 82.3338 9.27914 75.3295 9.52308 70.8665C9.85132 64.8612 11.3004 59.6948 13.6798 55.1703C21.0278 41.5864 36.2338 33.4761 52.3236 34.3555C74.8112 35.5846 92.2624 53.8425 91.0988 75.1314C90.7663 81.2152 85.3727 85.7135 78.864 85.3577C72.3582 85.0021 67.4946 79.752 67.8167 73.8588C68.3363 64.3532 60.829 56.4114 50.9536 55.8716C41.0764 55.3318 32.7395 62.6032 32.2306 71.9138C31.6199 83.0865 35.3562 93.9131 42.9571 102.393Z" fill="#6B7B42" stroke="#6B7B42" stroke-width="0.5"/>
</svg>
