<svg width="60" height="36" viewBox="0 0 60 36" fill="none" xmlns="http://www.w3.org/2000/svg">
<path d="M52.1126 27.0257V19.9598H59.1814V14.6626H52.1126V7.59677H46.8154V14.6626H39.7496V19.9598H46.8154V27.0257H52.1126ZM18.5695 7.40414C21.8762 7.40414 24.1031 8.81673 25.3697 10.0192L30.3955 5.14516C27.3369 2.28496 23.3472 0.533814 18.5695 0.533814C8.82726 0.530896 0.90625 8.44607 0.90625 18.197C0.90625 27.948 8.82726 35.8632 18.5695 35.8632C28.764 35.8632 35.5322 28.6922 35.5322 18.6056C35.5322 17.1376 35.3454 16.0957 35.0857 14.9866H18.5607V21.5709H28.2854C27.8243 24.3465 25.3347 29.0308 18.5695 29.0308C12.7236 29.0308 7.95461 24.1714 7.95461 18.2204C7.95461 12.2606 12.7236 7.40414 18.5695 7.40414Z" fill="#6B7B42"/>
</svg>
