<svg width="31" height="31" viewBox="0 0 31 31" fill="none" xmlns="http://www.w3.org/2000/svg">
<path fill-rule="evenodd" clip-rule="evenodd" d="M4.62901 30.7808C2.07901 30.7808 0.129013 28.8308 0.129013 26.2808L0.128906 13.8385H30.1289L30.129 26.2808C30.129 28.8308 28.179 30.7808 25.629 30.7808H4.62901ZM5.13965 17.5044C4.58736 17.5044 4.13965 17.9521 4.13965 18.5044V19.8591C4.13965 20.4114 4.58736 20.8591 5.13965 20.8591H8.22923C8.78151 20.8591 9.22923 20.4114 9.22923 19.8591V18.5044C9.22923 17.9521 8.78151 17.5044 8.22922 17.5044H5.13965ZM13.584 17.5044C13.0317 17.5044 12.584 17.9521 12.584 18.5044V19.8591C12.584 20.4114 13.0317 20.8591 13.584 20.8591H16.6736C17.2258 20.8591 17.6736 20.4114 17.6736 19.8591V18.5044C17.6736 17.9521 17.2258 17.5044 16.6736 17.5044H13.584ZM21.0283 18.5044C21.0283 17.9521 21.476 17.5044 22.0283 17.5044H25.1179C25.6702 17.5044 26.1179 17.9521 26.1179 18.5044V19.8591C26.1179 20.4114 25.6702 20.8591 25.1179 20.8591H22.0283C21.476 20.8591 21.0283 20.4114 21.0283 19.8591V18.5044ZM5.13965 23.7512C4.58736 23.7512 4.13965 24.1989 4.13965 24.7512V26.1059C4.13965 26.6582 4.58736 27.1059 5.13965 27.1059H8.22923C8.78151 27.1059 9.22923 26.6582 9.22923 26.1059V24.7512C9.22923 24.1989 8.78151 23.7512 8.22922 23.7512H5.13965ZM12.584 24.7512C12.584 24.1989 13.0317 23.7512 13.584 23.7512H16.6736C17.2258 23.7512 17.6736 24.1989 17.6736 24.7512V26.1059C17.6736 26.6582 17.2258 27.1059 16.6736 27.1059H13.584C13.0317 27.1059 12.584 26.6582 12.584 26.1059V24.7512ZM22.0283 23.7512C21.476 23.7512 21.0283 24.1989 21.0283 24.7512V26.1059C21.0283 26.6582 21.476 27.1059 22.0283 27.1059H25.1179C25.6702 27.1059 26.1179 26.6582 26.1179 26.1059V24.7512C26.1179 24.1989 25.6702 23.7512 25.1179 23.7512H22.0283Z" fill="#ACC270"/>
<path d="M22.629 3.78076H25.629C28.179 3.78076 30.129 5.73076 30.129 8.28076V11.2808H0.129013V8.28076C0.129013 5.73076 2.07901 3.78076 4.62901 3.78076H7.62901V2.28076C7.62901 1.38076 8.22901 0.780762 9.12901 0.780762C10.029 0.780762 10.629 1.38076 10.629 2.28076V3.78076H19.629V2.28076C19.629 1.38076 20.229 0.780762 21.129 0.780762C22.029 0.780762 22.629 1.38076 22.629 2.28076V3.78076Z" fill="#ACC270"/>
</svg>
