<svg width="74" height="68" viewBox="0 0 74 68" fill="none" xmlns="http://www.w3.org/2000/svg">
<path fill-rule="evenodd" clip-rule="evenodd" d="M72.3624 15.1596C71.7151 14.0381 70.7882 13.1035 69.6721 12.4469C68.556 11.7904 67.2887 11.4343 65.994 11.4135H18.0439L15.8711 2.94729C15.6516 2.13003 15.1619 1.41118 14.4816 0.907804C13.8014 0.404431 12.9708 0.146201 12.125 0.175171H4.63282C3.63929 0.175171 2.68646 0.569848 1.98393 1.27238C1.2814 1.97491 0.886719 2.92775 0.886719 3.92128C0.886719 4.9148 1.2814 5.86764 1.98393 6.57017C2.68646 7.2727 3.63929 7.66738 4.63282 7.66738H9.27799L19.6172 46.1024C19.8368 46.9197 20.3265 47.6385 21.0068 48.1419C21.687 48.6453 22.5176 48.9035 23.3633 48.8745H57.0783C57.7701 48.8724 58.4478 48.6788 59.0362 48.3152C59.6247 47.9515 60.101 47.432 60.4123 46.8142L72.6995 22.2397C73.2321 21.1234 73.48 19.8927 73.4212 18.6573C73.3624 17.4219 72.9986 16.2202 72.3624 15.1596ZM52.8188 20.9411C52.1747 20.9362 51.5539 21.1818 51.0874 21.6259H51.0907C51.0673 21.6489 51.0451 21.6733 51.0244 21.6988L40.6309 32.8757L35.7395 27.988C35.5121 27.744 35.2378 27.5482 34.9332 27.4125C34.6285 27.2767 34.2996 27.2037 33.9661 27.1978C33.6326 27.1919 33.3013 27.2533 32.992 27.3782C32.6827 27.5031 32.4018 27.6891 32.1659 27.9249C31.93 28.1608 31.7441 28.4418 31.6192 28.751C31.4943 29.0603 31.4329 29.3916 31.4388 29.7251C31.4447 30.0586 31.5177 30.3875 31.6534 30.6922C31.7892 30.9969 31.9849 31.2711 32.229 31.4985L38.9486 38.2176C39.1847 38.4538 39.466 38.6399 39.7757 38.7648C40.0854 38.8898 40.4171 38.951 40.751 38.9448C41.0849 38.9386 41.4141 38.8652 41.719 38.7288C42.0238 38.5925 42.2981 38.3961 42.5253 38.1514L54.631 25.1033C55.0662 24.6285 55.3 24.0031 55.283 23.3592C55.266 22.7153 54.9995 22.1032 54.5397 21.652C54.08 21.2009 53.4629 20.946 52.8188 20.9411Z" fill="white"/>
<path d="M21.4903 67.6052C24.5937 67.6052 27.1095 65.0894 27.1095 61.986C27.1095 58.8826 24.5937 56.3668 21.4903 56.3668C18.3869 56.3668 15.8711 58.8826 15.8711 61.986C15.8711 65.0894 18.3869 67.6052 21.4903 67.6052Z" fill="white"/>
<path d="M64.5705 61.986C64.5705 65.0894 62.0547 67.6052 58.9513 67.6052C55.848 67.6052 53.3322 65.0894 53.3322 61.986C53.3322 58.8826 55.848 56.3668 58.9513 56.3668C62.0547 56.3668 64.5705 58.8826 64.5705 61.986Z" fill="white"/>
</svg>
