<svg width="47" height="44" viewBox="0 0 47 44" fill="none" xmlns="http://www.w3.org/2000/svg">
<path fill-rule="evenodd" clip-rule="evenodd" d="M46.3085 9.86522C45.8891 9.1386 45.2886 8.53308 44.5655 8.10771C43.8424 7.68235 43.0213 7.45166 42.1825 7.43815H11.116L9.70828 1.95297C9.56606 1.42348 9.24874 0.957738 8.80803 0.631608C8.36731 0.305477 7.82915 0.138172 7.28121 0.156941H2.42707C1.78337 0.156941 1.16604 0.412649 0.710872 0.867813C0.255708 1.32298 0 1.94031 0 2.58401C0 3.22771 0.255708 3.84505 0.710872 4.30021C1.16604 4.75537 1.78337 5.01108 2.42707 5.01108H5.43664L12.1354 29.9128C12.2776 30.4423 12.5949 30.9081 13.0356 31.2342C13.4763 31.5603 14.0145 31.7276 14.5624 31.7089H36.4061C36.8543 31.7075 37.2933 31.5821 37.6746 31.3464C38.0559 31.1108 38.3645 30.7742 38.5662 30.374L46.5269 14.4524C46.872 13.7292 47.0326 12.9318 46.9945 12.1313C46.9564 11.3309 46.7207 10.5524 46.3085 9.86522ZM33.6464 13.611C33.2291 13.6079 32.8268 13.7669 32.5246 14.0547H32.5267C32.5116 14.0696 32.4972 14.0854 32.4838 14.1019L25.75 21.3433L22.5808 18.1766C22.4335 18.0185 22.2558 17.8917 22.0584 17.8038C21.861 17.7158 21.6479 17.6685 21.4318 17.6647C21.2158 17.6609 21.0011 17.7006 20.8008 17.7816C20.6004 17.8625 20.4183 17.983 20.2655 18.1358C20.1127 18.2886 19.9923 18.4706 19.9113 18.671C19.8304 18.8714 19.7906 19.086 19.7944 19.3021C19.7983 19.5182 19.8455 19.7313 19.9335 19.9287C20.0215 20.1261 20.1483 20.3037 20.3064 20.4511L24.66 24.8043C24.8129 24.9573 24.9952 25.0779 25.1958 25.1588C25.3965 25.2398 25.6114 25.2795 25.8277 25.2755C26.0441 25.2714 26.2574 25.2239 26.4549 25.1355C26.6524 25.0472 26.8301 24.92 26.9773 24.7614L34.8205 16.3077C35.1025 16 35.2539 15.5949 35.2429 15.1777C35.2319 14.7605 35.0592 14.3639 34.7613 14.0716C34.4635 13.7793 34.0637 13.6142 33.6464 13.611Z" fill="#6B7B42"/>
<path d="M13.3489 43.8443C15.3595 43.8443 16.9895 42.2143 16.9895 40.2037C16.9895 38.193 15.3595 36.5631 13.3489 36.5631C11.3382 36.5631 9.70828 38.193 9.70828 40.2037C9.70828 42.2143 11.3382 43.8443 13.3489 43.8443Z" fill="#6B7B42"/>
<path d="M41.2602 40.2037C41.2602 42.2143 39.6302 43.8443 37.6196 43.8443C35.6089 43.8443 33.979 42.2143 33.979 40.2037C33.979 38.193 35.6089 36.5631 37.6196 36.5631C39.6302 36.5631 41.2602 38.193 41.2602 40.2037Z" fill="#6B7B42"/>
</svg>
