<svg width="68" height="49" viewBox="0 0 68 49" fill="none" xmlns="http://www.w3.org/2000/svg">
<path d="M0.523438 8.9325C0.523438 4.31267 4.27287 0.563232 8.89271 0.563232H59.1083C63.7282 0.563232 67.4776 4.31267 67.4776 8.9325V40.0184C67.4776 42.238 66.5959 44.3668 65.0263 45.9363C63.4568 47.5059 61.328 48.3876 59.1083 48.3876H8.89271C6.67304 48.3876 4.54428 47.5059 2.97474 45.9363C1.4052 44.3668 0.523438 42.238 0.523438 40.0184V8.9325ZM20.9014 23.1077C21.7537 23.1077 22.5976 22.9398 23.3849 22.6137C24.1723 22.2875 24.8878 21.8095 25.4904 21.2069C26.093 20.6042 26.571 19.8888 26.8972 19.1014C27.2233 18.314 27.3912 17.4701 27.3912 16.6179C27.3912 15.7656 27.2233 14.9217 26.8972 14.1344C26.571 13.347 26.093 12.6316 25.4904 12.0289C24.8878 11.4263 24.1723 10.9483 23.3849 10.6221C22.5976 10.296 21.7537 10.1281 20.9014 10.1281C19.1802 10.1281 17.5295 10.8119 16.3125 12.0289C15.0954 13.246 14.4116 14.8967 14.4116 16.6179C14.4116 18.3391 15.0954 19.9898 16.3125 21.2069C17.5295 22.4239 19.1802 23.1077 20.9014 23.1077ZM14.1917 26.3502C13.1034 26.3502 12.0597 26.7825 11.2902 27.552C10.5206 28.3215 10.0883 29.3652 10.0883 30.4535C10.0885 32.2345 10.684 33.9644 11.7801 35.3682C12.8763 36.772 14.4102 37.7691 16.1381 38.201L16.3916 38.268C19.3567 39.0093 22.4509 39.0093 25.4113 38.268L25.6695 38.2058C27.3974 37.7739 28.9313 36.7768 30.0275 35.373C31.1237 33.9692 31.7191 32.2393 31.7193 30.4583C31.7199 29.919 31.6143 29.3849 31.4083 28.8865C31.2024 28.3881 30.9002 27.9352 30.5192 27.5537C30.1381 27.1721 29.6855 26.8695 29.1874 26.663C28.6892 26.4564 28.1552 26.3502 27.616 26.3502H14.1917ZM41.1742 14.9106C40.54 14.9106 39.9318 15.1625 39.4833 15.6109C39.0349 16.0594 38.783 16.6676 38.783 17.3018C38.783 17.936 39.0349 18.5442 39.4833 18.9926C39.9318 19.4411 40.54 19.693 41.1742 19.693H55.5215C56.1557 19.693 56.7639 19.4411 57.2124 18.9926C57.6608 18.5442 57.9127 17.936 57.9127 17.3018C57.9127 16.6676 57.6608 16.0594 57.2124 15.6109C56.7639 15.1625 56.1557 14.9106 55.5215 14.9106H41.1742ZM41.1742 29.2579C40.54 29.2579 39.9318 29.5098 39.4833 29.9583C39.0349 30.4067 38.783 31.0149 38.783 31.6491C38.783 32.2833 39.0349 32.8915 39.4833 33.34C39.9318 33.7884 40.54 34.0403 41.1742 34.0403H55.5215C56.1557 34.0403 56.7639 33.7884 57.2124 33.34C57.6608 32.8915 57.9127 32.2833 57.9127 31.6491C57.9127 31.0149 57.6608 30.4067 57.2124 29.9583C56.7639 29.5098 56.1557 29.2579 55.5215 29.2579H41.1742Z" fill="white"/>
</svg>
