<svg width="80" height="74" viewBox="0 0 80 74" fill="none" xmlns="http://www.w3.org/2000/svg">
<path d="M40 0.187988C34.8555 0.187988 30.9215 4.12197 30.9215 9.2664V27.4232C30.9215 32.5677 34.8555 36.5016 40 36.5016H58.1568L70.2613 43.1138V36.5016C75.4058 36.5016 79.3398 32.5677 79.3398 27.4232V9.2664C79.3398 4.12197 75.4058 0.187988 70.2613 0.187988H40ZM52.6734 9.2664H57.8723L62.9804 27.4232H58.4412L57.2096 22.884H52.6704L51.5386 27.4232H47.5653L52.6734 9.2664ZM55.1306 12.2925C54.828 13.503 54.4891 14.9798 54.1835 15.8876L53.3361 19.8579H56.9282L56.0748 15.8846C55.4726 14.9798 55.1306 13.503 55.1306 12.2925ZM9.73857 30.4494C4.59414 30.4494 0.660156 34.3834 0.660156 39.5278V57.6846C0.660156 62.8291 4.59414 66.763 9.73857 66.763V73.1162L21.8431 66.763H40C45.1444 66.763 49.0784 62.8291 49.0784 57.6846V39.5278H40C34.2503 39.5278 29.6929 35.5938 28.1799 30.4494H9.73857ZM23.6406 39.2433C28.7851 39.2433 31.206 43.4799 31.206 48.3217C31.206 52.5583 29.7504 55.2455 27.3295 56.456C28.54 57.0612 29.9744 57.382 31.4874 57.6846L30.3556 60.7108C28.2374 60.1055 26.0404 59.1614 23.9221 58.2505C23.6195 57.9479 23.0899 57.9691 22.7873 57.9691C19.1559 57.6665 15.7908 54.6585 15.7908 48.6062C15.7908 43.4618 18.7988 39.2433 23.6406 39.2433ZM23.6406 42.5539C21.2197 42.5539 20.0456 45.2775 20.0456 48.6062C20.0456 52.2376 21.2197 54.6585 23.6406 54.6585C26.0616 54.6585 27.3265 51.935 27.3265 48.6062C27.3265 45.2775 26.0616 42.5539 23.6406 42.5539Z" fill="white"/>
</svg>
