<svg width="57" height="58" viewBox="0 0 57 58" fill="none" xmlns="http://www.w3.org/2000/svg">
<path d="M2.50006 8.6225H4.85185M54.5 8.6225H29.2016M54.4999 28.8431H52.1481M2.5 28.8431H27.7984M2.50006 49.0638H4.85185M54.5 49.0638H29.2016M11.2489 8.6225C11.2489 11.8135 13.8357 14.4003 17.0266 14.4003C20.2176 14.4003 22.8044 11.8135 22.8044 8.6225C22.8044 5.43152 20.2176 2.84473 17.0266 2.84473C13.8357 2.84473 11.2489 5.43152 11.2489 8.6225ZM45.7511 28.8431C45.7511 32.0341 43.1643 34.6209 39.9734 34.6209C36.7824 34.6209 34.1956 32.0341 34.1956 28.8431C34.1956 25.6521 36.7824 23.0654 39.9734 23.0654C43.1643 23.0654 45.7511 25.6521 45.7511 28.8431ZM11.2489 49.0638C11.2489 52.2548 13.8357 54.8415 17.0266 54.8415C20.2176 54.8415 22.8044 52.2548 22.8044 49.0638C22.8044 45.8728 20.2176 43.286 17.0266 43.286C13.8357 43.286 11.2489 45.8728 11.2489 49.0638Z" stroke="white" stroke-width="5" stroke-linecap="round" stroke-linejoin="round"/>
</svg>
