<svg width="60" height="61" viewBox="0 0 60 61" fill="none" xmlns="http://www.w3.org/2000/svg">
<path d="M30 0.475586C13.458 0.475586 0 13.9336 0 30.4756C0 47.0176 13.458 60.4756 30 60.4756C46.542 60.4756 60 47.0176 60 30.4756C60 13.9336 46.542 0.475586 30 0.475586ZM33 48.4756H27V42.4756H33V48.4756ZM35.928 33.8206C35.34 34.2946 34.773 34.7476 34.323 35.1976C33.099 36.4186 33.003 37.5286 33 37.5766V37.9756H27V37.4746C27 37.1206 27.087 33.9436 30.078 30.9526C30.663 30.3676 31.389 29.7736 32.151 29.1556C34.353 27.3706 35.799 26.0686 35.799 24.2746C35.7641 22.759 35.1375 21.3173 34.0532 20.2579C32.9689 19.1985 31.513 18.6056 29.997 18.606C28.4811 18.6064 27.0255 19.2001 25.9417 20.26C24.858 21.32 24.2321 22.762 24.198 24.2776H18.198C18.198 17.7706 23.493 12.4756 30 12.4756C36.507 12.4756 41.802 17.7706 41.802 24.2776C41.802 29.0686 38.265 31.9276 35.928 33.8206Z" fill="white"/>
</svg>
