<svg width="29" height="38" viewBox="0 0 29 38" fill="none" xmlns="http://www.w3.org/2000/svg">
<path d="M14.2672 0.53064C7.90543 0.53064 2.73529 5.70077 2.73529 12.0625C2.73529 15.9449 4.98401 19.1931 7.59791 21.461C8.42436 22.1722 9.86585 23.3061 11.1536 24.9783C12.5758 26.8426 13.8636 28.8414 14.2672 30.1868C14.6708 28.8414 15.9585 26.8426 17.3808 24.9783C18.6685 23.3061 20.11 22.1722 20.9365 21.461C23.5504 19.1931 25.7991 15.9449 25.7991 12.0625C25.7991 5.70077 20.629 0.53064 14.2672 0.53064ZM14.2672 5.45092C15.1354 5.45092 15.9952 5.62193 16.7973 5.9542C17.5995 6.28646 18.3284 6.77347 18.9423 7.38741C19.5563 8.00136 20.0433 8.73022 20.3755 9.53238C20.7078 10.3345 20.8788 11.1943 20.8788 12.0625C20.8788 12.9308 20.7078 13.7905 20.3755 14.5927C20.0433 15.3949 19.5563 16.1237 18.9423 16.7377C18.3284 17.3516 17.5995 17.8386 16.7973 18.1709C15.9952 18.5031 15.1354 18.6742 14.2672 18.6742C12.5137 18.6742 10.832 17.9776 9.59207 16.7377C8.35215 15.4977 7.65557 13.816 7.65557 12.0625C7.65557 10.309 8.35215 8.62733 9.59207 7.38741C10.832 6.14749 12.5137 5.45092 14.2672 5.45092Z" fill="#ACC270"/>
<path fill-rule="evenodd" clip-rule="evenodd" d="M7.01077 26.5064C7.31362 27.2775 6.93405 28.1481 6.16296 28.451C5.12301 28.8594 4.38157 29.3106 3.92526 29.736C3.47133 30.1592 3.40625 30.4478 3.40625 30.5864C3.40625 30.7242 3.46982 31.0069 3.90835 31.4217C4.35011 31.8395 5.06986 32.2848 6.0837 32.6903C8.10308 33.4979 10.9958 34.0308 14.2674 34.0308C17.5391 34.0308 20.4318 33.4979 22.4511 32.6903C23.465 32.2848 24.1847 31.8395 24.6265 31.4217C25.065 31.0069 25.1286 30.7242 25.1286 30.5864C25.1286 30.4478 25.0635 30.1592 24.6096 29.736C24.1533 29.3106 23.4118 28.8594 22.3719 28.451C21.6008 28.1481 21.2212 27.2775 21.5241 26.5064C21.8269 25.7353 22.6975 25.3558 23.4686 25.6586C24.7167 26.1488 25.8294 26.7718 26.6553 27.5417C27.4835 28.3139 28.1286 29.3418 28.1286 30.5864C28.1286 31.8145 27.5004 32.8328 26.6879 33.6012C25.8787 34.3666 24.7882 34.9866 23.5652 35.4758C21.1107 36.4574 17.8228 37.0308 14.2674 37.0308C10.712 37.0308 7.4241 36.4574 4.96966 35.4758C3.7466 34.9866 2.65613 34.3666 1.8469 33.6012C1.03445 32.8328 0.40625 31.8145 0.40625 30.5864C0.40625 29.3418 1.05132 28.3139 1.87955 27.5417C2.70541 26.7718 3.81814 26.1488 5.06624 25.6586C5.83732 25.3558 6.70792 25.7353 7.01077 26.5064Z" fill="#ACC270"/>
</svg>
