<svg width="52" height="66" viewBox="0 0 52 66" fill="none" xmlns="http://www.w3.org/2000/svg">
<path d="M25.9996 65.7663C21.3886 61.8333 17.1147 57.5215 13.2224 52.876C7.38147 45.8997 0.445316 35.5101 0.445316 25.6097C0.442783 20.5534 1.94027 15.6101 4.74826 11.4052C7.55625 7.20041 11.5485 3.92308 16.2198 1.98804C20.8911 0.0529948 26.0315 -0.452784 30.9904 0.53471C35.9492 1.52221 40.5037 3.95858 44.0774 7.53551C46.4567 9.90424 48.3426 12.7213 49.6259 15.8238C50.9092 18.9262 51.5645 22.2523 51.5538 25.6097C51.5538 35.5101 44.6177 45.8997 38.7767 52.876C34.8844 57.5215 30.6105 61.8333 25.9996 65.7663ZM25.9996 14.6578C23.095 14.6578 20.3093 15.8117 18.2555 17.8656C16.2016 19.9194 15.0477 22.7051 15.0477 25.6097C15.0477 28.5143 16.2016 31.2999 18.2555 33.3538C20.3093 35.4076 23.095 36.5615 25.9996 36.5615C28.9042 36.5615 31.6898 35.4076 33.7437 33.3538C35.7975 31.2999 36.9514 28.5143 36.9514 25.6097C36.9514 22.7051 35.7975 19.9194 33.7437 17.8656C31.6898 15.8117 28.9042 14.6578 25.9996 14.6578Z" fill="white"/>
</svg>
