<svg width="45" height="41" viewBox="0 0 45 41" fill="none" xmlns="http://www.w3.org/2000/svg">
<path fill-rule="evenodd" clip-rule="evenodd" d="M3.24747 31.0902L0 40.8326L11.7409 38.3345C16.5226 40.656 22.0901 41.3549 27.4082 40.3014C32.7262 39.2478 37.4328 36.5135 40.653 32.6068C43.8732 28.7001 45.3878 23.8868 44.9152 19.062C44.4426 14.2371 42.0149 9.729 38.0836 6.37579C34.1522 3.02259 28.9847 1.05249 23.5419 0.831807C18.0991 0.611123 12.7513 2.15487 8.49281 5.17601C4.23436 8.19715 1.35505 12.4901 0.390243 17.2567C-0.574569 22.0233 0.440769 26.9391 3.24747 31.0902ZM14.9883 20.8482C14.9883 19.4686 13.8699 18.3502 12.4903 18.3502C11.1106 18.3502 9.99222 19.4686 9.99222 20.8482V20.8732C9.99222 22.2529 11.1106 23.3713 12.4903 23.3713C13.8699 23.3713 14.9883 22.2529 14.9883 20.8732V20.8482ZM24.9806 20.8482C24.9806 19.4686 23.8621 18.3502 22.4825 18.3502C21.1029 18.3502 19.9844 19.4686 19.9844 20.8482V20.8732C19.9844 22.2529 21.1029 23.3713 22.4825 23.3713C23.8621 23.3713 24.9806 22.2529 24.9806 20.8732V20.8482ZM34.9728 20.8482C34.9728 19.4686 33.8544 18.3502 32.4747 18.3502C31.0951 18.3502 29.9767 19.4686 29.9767 20.8482V20.8732C29.9767 22.2529 31.0951 23.3713 32.4747 23.3713C33.8544 23.3713 34.9728 22.2529 34.9728 20.8732V20.8482Z" fill="#6B7B42"/>
</svg>
