<svg width="35" height="46" viewBox="0 0 35 46" fill="none" xmlns="http://www.w3.org/2000/svg">
<path d="M17.3077 45.811C14.4346 45.811 12.1154 43.4918 12.1154 40.6187H22.5C22.5 43.4918 20.1808 45.811 17.3077 45.811ZM31.1538 37.1572H3.46154C1.55769 37.1572 0 35.5995 0 33.6957C0 31.7918 1.55769 30.2341 3.46154 30.2341V19.8495C3.46154 13.411 7.89231 8.04565 13.8462 6.48796V4.27257C13.8462 2.36873 15.4038 0.811035 17.3077 0.811035C19.2115 0.811035 20.7692 2.36873 20.7692 4.27257V6.48796C26.7231 8.04565 31.1538 13.411 31.1538 19.8495V30.2341C33.0577 30.2341 34.6154 31.7918 34.6154 33.6957C34.6154 35.5995 33.0577 37.1572 31.1538 37.1572Z" fill="#6B7B42"/>
</svg>
