<svg width="50" height="66" viewBox="0 0 50 66" fill="none" xmlns="http://www.w3.org/2000/svg">
<path d="M25 65.9754C20.85 65.9754 17.5 62.6254 17.5 58.4754H32.5C32.5 62.6254 29.15 65.9754 25 65.9754ZM45 53.4754H5C2.25 53.4754 0 51.2254 0 48.4754C0 45.7254 2.25 43.4754 5 43.4754V28.4754C5 19.1754 11.4 11.4254 20 9.1754V5.9754C20 3.2254 22.25 0.975403 25 0.975403C27.75 0.975403 30 3.2254 30 5.9754V9.1754C38.6 11.4254 45 19.1754 45 28.4754V43.4754C47.75 43.4754 50 45.7254 50 48.4754C50 51.2254 47.75 53.4754 45 53.4754Z" fill="white"/>
</svg>
