<svg width="60" height="65" viewBox="0 0 60 65" fill="none" xmlns="http://www.w3.org/2000/svg">
<path d="M25.6447 37.8628C26.7978 36.744 28.3618 36.1154 29.9926 36.1154C31.6234 36.1154 33.1874 36.744 34.3405 37.8628C35.4936 38.9816 36.1415 40.499 36.1415 42.0812C36.1415 43.6634 35.4936 45.1808 34.3405 46.2996C33.1874 47.4184 31.6234 48.0469 29.9926 48.0469C28.3618 48.0469 26.7978 47.4184 25.6447 46.2996C24.4916 45.1808 23.8438 43.6634 23.8438 42.0812C23.8438 40.499 24.4916 38.9816 25.6447 37.8628Z" fill="white"/>
<path fill-rule="evenodd" clip-rule="evenodd" d="M57.153 62.759C55.9426 63.9694 54.3008 64.6494 52.589 64.6494H7.40761C5.69577 64.6494 4.05405 63.9694 2.8436 62.759C1.63315 61.5485 0.953125 59.9068 0.953125 58.1949V22.6953C0.953125 21.8394 1.29314 21.0185 1.89836 20.4133C2.50359 19.8081 3.32445 19.468 4.18037 19.468H13.8621V16.2408C13.8646 13.9864 14.3389 11.7575 15.2546 9.69746C16.1703 7.63743 17.5071 5.7919 19.179 4.27959C20.8509 2.76729 22.8209 1.62172 24.9621 0.916566C27.1034 0.211416 29.3686 -0.0376909 31.6119 0.185272C39.9931 1.00176 46.1345 8.5406 46.1345 16.9605V19.468H55.8162C56.6722 19.468 57.493 19.8081 58.0982 20.4133C58.7035 21.0185 59.0435 21.8394 59.0435 22.6953V58.1949C59.0435 59.9068 58.3635 61.5485 57.153 62.759ZM29.9983 6.55907C24.6604 6.55907 20.3166 10.9029 20.3166 16.2408V19.468H39.68V16.2408C39.68 10.9029 35.3362 6.55907 29.9983 6.55907ZM27.201 56.9956H32.7965C33.1468 56.9953 33.4865 56.8789 33.7594 56.6657C34.0322 56.4525 34.2218 56.1553 34.2968 55.8233L34.9317 53.0209C35.7658 52.6667 36.5567 52.2235 37.2898 51.6995L40.1136 52.572C40.4479 52.6754 40.8085 52.6648 41.1357 52.5419C41.4629 52.419 41.7368 52.1912 41.9122 51.8963L44.7099 47.1938C45.0665 46.5868 44.9436 45.8202 44.4132 45.3459L42.2227 43.4071C42.3223 42.5288 42.3223 41.6425 42.2227 40.7643L44.4132 38.8254C44.9436 38.3526 45.0665 37.5845 44.7099 36.9775L41.9122 32.275C41.7369 31.9805 41.4632 31.7529 41.1363 31.63C40.8095 31.5071 40.4492 31.4963 40.1152 31.5994L37.2898 32.4719C36.5549 31.9494 35.7637 31.5058 34.9301 31.1489L34.2968 28.3406C34.2221 28.0083 34.0327 27.7107 33.7598 27.4972C33.4869 27.2838 33.147 27.1672 32.7965 27.1668H27.201C26.8505 27.1672 26.5106 27.2838 26.2377 27.4972C25.9649 27.7107 25.7754 28.0083 25.7007 28.3406L25.0735 31.1475C24.6646 31.319 24.265 31.5114 23.876 31.7232C23.4733 31.9499 23.0828 32.2004 22.7078 32.4689L19.8839 31.5964C19.5496 31.493 19.189 31.5036 18.8618 31.6265C18.5347 31.7494 18.2607 31.9772 18.0854 32.272L15.2876 36.9745C15.1137 37.2698 15.0484 37.6136 15.1023 37.9496C15.1562 38.2856 15.3262 38.5939 15.5843 38.8239L17.7748 40.7583C17.6752 41.6366 17.6752 42.5228 17.7748 43.4011L15.5843 45.34C15.3265 45.5699 15.1568 45.8779 15.1029 46.2136C15.049 46.5493 15.1141 46.8928 15.2876 47.1879L18.0915 51.8874C18.2668 52.1822 18.5408 52.41 18.868 52.5329C19.1951 52.6558 19.5558 52.6664 19.89 52.563L22.7139 51.6905C23.4475 52.2149 24.2389 52.6586 25.0735 53.0134L25.6992 55.8233C25.7742 56.1556 25.964 56.453 26.2372 56.6662C26.5104 56.8794 26.8504 56.9956 27.201 56.9956Z" fill="white"/>
</svg>
