<svg width="32" height="32" viewBox="0 0 32 32" fill="none" xmlns="http://www.w3.org/2000/svg">
<path fill-rule="evenodd" clip-rule="evenodd" d="M17.6026 6.67486C18.584 6.52699 19.5865 6.61177 20.5291 6.92237C21.4718 7.23297 22.3282 7.7607 23.0295 8.46302C23.7313 9.16392 24.2587 10.0198 24.5692 10.9618C24.88 11.9044 24.9649 12.9069 24.8172 13.8884C24.7129 14.5812 24.0668 15.0583 23.374 14.954C22.6811 14.8497 22.2041 14.2036 22.3083 13.5108C22.3969 12.9223 22.346 12.3213 22.1597 11.7562C21.9733 11.1911 21.6568 10.6776 21.2357 10.2572L21.2341 10.2557C20.8137 9.83467 20.3002 9.51828 19.7351 9.33207C19.17 9.14586 18.569 9.09503 17.9806 9.18368C17.2878 9.28806 16.6416 8.81106 16.5372 8.11827C16.4328 7.42548 16.9098 6.77924 17.6026 6.67486Z" fill="#ACC270"/>
<path fill-rule="evenodd" clip-rule="evenodd" d="M17.4366 0.496894C19.281 0.219005 21.1649 0.378338 22.9363 0.962048C24.7075 1.54563 26.3167 2.53708 27.6345 3.85652C28.9544 5.17412 29.9463 6.78337 30.5302 8.55458C31.1143 10.3261 31.2739 12.2101 30.9963 14.0546C30.892 14.7474 30.2458 15.2245 29.553 15.1202C28.8602 15.0159 28.3831 14.3697 28.4874 13.6769C28.7059 12.2255 28.5803 10.743 28.1207 9.34901C27.6611 7.95501 26.8804 6.68851 25.8415 5.65159L25.84 5.65008C24.8029 4.61148 23.5363 3.83107 22.1423 3.37175C20.7484 2.91243 19.2659 2.78705 17.8146 3.00572C17.1218 3.1101 16.4756 2.6331 16.3712 1.94031C16.2668 1.24752 16.7438 0.601277 17.4366 0.496894Z" fill="#ACC270"/>
<path d="M7.65144 3.54339C7.95315 3.54355 8.24932 3.6244 8.50925 3.77756C8.76919 3.93073 8.98342 4.15063 9.12975 4.41448L11.1992 8.14069C11.3327 8.38116 11.4056 8.65057 11.4115 8.92556C11.4174 9.20055 11.3561 9.47283 11.233 9.7188L9.23969 13.7046C9.23969 13.7046 9.81732 16.6748 12.2344 19.0918C14.6523 21.5089 17.6123 22.0772 17.6123 22.0772L21.5973 20.0839C21.8434 19.9608 22.1159 19.8996 22.391 19.9056C22.6662 19.9116 22.9357 19.9847 23.1762 20.1185L26.9143 22.1965C27.1776 22.3431 27.397 22.5575 27.5497 22.8174C27.7024 23.0773 27.7829 23.3733 27.7828 23.6748V27.9659C27.7828 30.1504 25.7531 31.7293 23.6828 31.0299C19.4305 29.5956 12.8306 26.8631 8.646 22.6802C4.4631 18.4965 1.73144 11.8957 0.296266 7.64341C-0.402294 5.5731 1.17581 3.54339 3.36113 3.54339H7.65144Z" fill="#ACC270"/>
</svg>
