<svg width="130" height="131" viewBox="0 0 130 131" fill="none" xmlns="http://www.w3.org/2000/svg">
<path d="M64.9981 22.1531C59.6429 22.1531 54.4079 23.7411 49.9551 26.7163C45.5024 29.6916 42.0319 33.9203 39.9826 38.8679C37.9332 43.8155 37.397 49.2597 38.4418 54.5121C39.4865 59.7644 42.0653 64.589 45.8521 68.3757C49.6388 72.1625 54.4634 74.7413 59.7157 75.786C64.9681 76.8308 70.4123 76.2946 75.3599 74.2452C80.3075 72.1959 84.5362 68.7254 87.5115 64.2727C90.4867 59.8199 92.0747 54.5849 92.0747 49.2297C92.0747 42.0485 89.222 35.1615 84.1441 30.0837C79.0663 25.0058 72.1793 22.1531 64.9981 22.1531Z" fill="white"/>
<path d="M64.9981 -10.3388C50.0034 -10.3388 35.3455 -5.89236 22.8778 2.43824C10.4102 10.7688 0.692877 22.6094 -5.04534 36.4627C-10.7836 50.316 -12.2849 65.5598 -9.35962 80.2663C-6.4343 94.9729 0.786326 108.482 11.3892 119.085C21.992 129.687 35.5009 136.908 50.2074 139.833C64.914 142.759 80.1578 141.257 94.011 135.519C107.864 129.781 119.705 120.064 128.036 107.596C136.366 95.1283 140.813 80.4703 140.813 65.4757C140.79 45.3755 132.795 26.1051 118.582 11.8921C104.369 -2.32094 85.0983 -10.3159 64.9981 -10.3388ZM108.277 113.813C108.169 106.71 105.275 99.9333 100.219 94.9436C95.1623 89.9539 88.348 87.1503 81.244 87.1369H48.7521C41.6482 87.1503 34.8339 89.9539 29.7773 94.9436C24.7208 99.9333 21.8268 106.71 21.7189 113.813C11.8985 105.044 4.97324 93.4992 1.85999 80.7071C-1.25325 67.915 -0.407592 54.479 4.28499 42.1782C8.97758 29.8774 17.2957 19.292 28.138 11.8237C38.9803 4.35548 51.8353 0.356587 65.0008 0.356587C78.1663 0.356587 91.0213 4.35548 101.864 11.8237C112.706 19.292 121.024 29.8774 125.717 42.1782C130.409 54.479 131.255 67.915 128.142 80.7071C125.028 93.4992 118.098 105.044 108.277 113.813Z" fill="white"/>
</svg>
