<svg width="62" height="57" viewBox="0 0 62 57" fill="none" xmlns="http://www.w3.org/2000/svg">
<path fill-rule="evenodd" clip-rule="evenodd" d="M6.97536 0.269287H55.0282C58.3319 0.269287 61.0349 2.97226 61.0349 6.2759V42.3156C61.0349 45.6192 58.3319 48.3222 55.0282 48.3222H12.982L6.1044 55.2298C4.21232 57.1218 0.96875 55.7704 0.96875 53.0974V6.2759C0.96875 2.97226 3.67172 0.269287 6.97536 0.269287ZM32.1448 12.6873C31.7486 11.6457 30.254 11.6457 29.8591 12.6873H29.8578L27.3031 19.7641C27.2141 19.9948 27.0572 20.193 26.8531 20.3325C26.649 20.472 26.4074 20.5462 26.1602 20.5454H19.8819C18.7242 20.5454 18.2157 21.9894 19.129 22.6966L23.5968 26.7163C23.7969 26.8702 23.9432 27.0835 24.0146 27.3256C24.086 27.5677 24.0788 27.8262 23.9942 28.0641L22.3626 34.9792C21.9652 36.0887 23.2524 37.044 24.2238 36.3603L30.2923 32.5096C30.5001 32.3635 30.7479 32.2852 31.0019 32.2852C31.2559 32.2852 31.5038 32.3635 31.7116 32.5096L37.7801 36.3603C38.7526 37.044 40.0386 36.09 39.6412 34.9792L38.0096 28.0641C37.925 27.8262 37.9179 27.5677 37.9893 27.3256C38.0607 27.0835 38.2069 26.8702 38.407 26.7163L42.8748 22.6966C43.7869 21.9894 43.2809 20.5454 42.1207 20.5454H35.8424C35.5952 20.546 35.3537 20.4717 35.1497 20.3322C34.9456 20.1928 34.7887 19.9947 34.6995 19.7641L32.1448 12.6873Z" fill="white"/>
</svg>
