<svg width="52" height="52" viewBox="0 0 52 52" fill="none" xmlns="http://www.w3.org/2000/svg">
<path fill-rule="evenodd" clip-rule="evenodd" d="M1.03914 0.69333C1.42338 0.359552 1.89793 0.14717 2.40284 0.0830264C2.90774 0.0188825 3.42033 0.105856 3.87581 0.332954L50.2098 23.5C50.6382 23.7134 50.9985 24.0421 51.2504 24.4491C51.5023 24.8561 51.6357 25.3252 51.6357 25.8038C51.6357 26.2824 51.5023 26.7515 51.2504 27.1585C50.9985 27.5654 50.6382 27.8941 50.2098 28.1076L3.87581 51.2746C3.42036 51.5025 2.90754 51.5902 2.40225 51.5265C1.89696 51.4629 1.4219 51.2508 1.0372 50.917C0.65249 50.5833 0.375423 50.143 0.241057 49.6517C0.10669 49.1605 0.121062 48.6404 0.282355 48.1574L6.87723 28.3779H20.744C21.4267 28.3779 22.0814 28.1067 22.5641 27.624C23.0469 27.1412 23.3181 26.4865 23.3181 25.8038C23.3181 25.1211 23.0469 24.4664 22.5641 23.9836C22.0814 23.5009 21.4267 23.2297 20.744 23.2297H6.87723L0.27978 3.4502C0.119319 2.96733 0.105568 2.44773 0.240266 1.95705C0.374964 1.46636 0.652067 1.02661 1.03657 0.69333H1.03914Z" fill="white"/>
</svg>
