<svg width="45" height="46" viewBox="0 0 45 46" fill="none" xmlns="http://www.w3.org/2000/svg">
<path d="M26.7214 45.811H18.28C17.7511 45.8111 17.2381 45.6358 16.826 45.3141C16.4139 44.9925 16.1275 44.5438 16.0143 44.0425L15.0704 39.8035C13.8113 39.2683 12.6174 38.5989 11.5107 37.8078L7.25058 39.124C6.74634 39.28 6.20225 39.264 5.70869 39.0786C5.21512 38.8932 4.80178 38.5496 4.53729 38.1048L0.307324 31.015C0.0456075 30.5698 -0.0526344 30.0516 0.0286715 29.5452C0.109977 29.0388 0.366017 28.5742 0.754902 28.2273L4.05956 25.3023C3.90928 23.9773 3.90928 22.6403 4.05956 21.3153L0.754902 18.397C0.365466 18.05 0.109078 17.585 0.0277592 17.078C-0.0535599 16.5711 0.0450138 16.0525 0.307324 15.607L4.52801 8.51278C4.7925 8.068 5.20585 7.72436 5.69941 7.53896C6.19298 7.35355 6.73706 7.33752 7.24131 7.49353L11.5014 8.80978C12.0673 8.40478 12.6563 8.02678 13.2639 7.68478C13.8506 7.36528 14.4536 7.07504 15.0704 6.81629L16.0166 2.58178C16.1293 2.08048 16.4151 1.63158 16.8268 1.30952C17.2384 0.987457 17.7512 0.811575 18.28 0.811035H26.7214C27.2502 0.811575 27.763 0.987457 28.1746 1.30952C28.5863 1.63158 28.8722 2.08048 28.9848 2.58178L29.9403 6.81854C31.1978 7.35689 32.3913 8.02606 33.5 8.81429L37.7624 7.49804C38.2664 7.3426 38.8099 7.35892 39.303 7.5443C39.7961 7.72968 40.209 8.07298 40.4734 8.51729L44.6941 15.6115C45.2321 16.5273 45.0466 17.686 44.2465 18.3993L40.9419 21.3243C41.0921 22.6493 41.0921 23.9863 40.9419 25.3113L44.2465 28.2363C45.0466 28.9518 45.2321 30.1083 44.6941 31.024L40.4734 38.1183C40.2089 38.5631 39.7956 38.9067 39.302 39.0921C38.8084 39.2775 38.2644 39.2935 37.7601 39.1375L33.5 37.8213C32.3941 38.6118 31.201 39.2804 29.9426 39.8148L28.9848 44.0425C28.8717 44.5434 28.5856 44.9918 28.174 45.3134C27.7624 45.635 27.2499 45.8106 26.7214 45.811ZM22.4914 14.311C20.0312 14.311 17.6718 15.2592 15.9321 16.9471C14.1925 18.6349 13.2152 20.9241 13.2152 23.311C13.2152 25.698 14.1925 27.9872 15.9321 29.675C17.6718 31.3628 20.0312 32.311 22.4914 32.311C24.9516 32.311 27.3111 31.3628 29.0507 29.675C30.7904 27.9872 31.7677 25.698 31.7677 23.311C31.7677 20.9241 30.7904 18.6349 29.0507 16.9471C27.3111 15.2592 24.9516 14.311 22.4914 14.311Z" fill="#6B7B42"/>
</svg>
