<svg width="60" height="61" viewBox="0 0 60 61" fill="none" xmlns="http://www.w3.org/2000/svg">
<path d="M35.6285 60.4756H24.3734C23.6682 60.4757 22.9841 60.2419 22.4346 59.813C21.8852 59.3842 21.5033 58.7859 21.3524 58.1176L20.0939 52.4656C18.4151 51.7519 16.8232 50.8594 15.3476 49.8046L9.66745 51.5596C8.99511 51.7676 8.26967 51.7462 7.61159 51.499C6.9535 51.2518 6.40237 50.7936 6.04972 50.2006L0.409766 40.7476C0.06081 40.154 -0.0701792 39.4631 0.0382287 38.7878C0.146637 38.1126 0.488023 37.4931 1.00654 37.0306L5.41275 33.1306C5.21237 31.3639 5.21237 29.5813 5.41275 27.8146L1.00654 23.9236C0.487288 23.4609 0.145438 22.8408 0.0370123 22.1649C-0.0714133 21.4891 0.0600184 20.7975 0.409766 20.2036L6.03735 10.7446C6.39 10.1515 6.94113 9.69336 7.59922 9.44615C8.2573 9.19894 8.98275 9.17757 9.65508 9.38559L15.3352 11.1406C16.0897 10.6006 16.8751 10.0966 17.6852 9.64058C18.4675 9.21459 19.2714 8.82759 20.0939 8.48259L21.3555 2.83659C21.5057 2.16818 21.8868 1.56965 22.4357 1.14023C22.9846 0.710815 23.6683 0.476306 24.3734 0.475586H35.6285C36.3336 0.476306 37.0173 0.710815 37.5662 1.14023C38.1151 1.56965 38.4962 2.16818 38.6464 2.83659L39.9203 8.48559C41.597 9.20339 43.1884 10.0956 44.6667 11.1466L50.3499 9.39159C51.0218 9.18433 51.7466 9.2061 52.404 9.45327C53.0614 9.70044 53.612 10.1582 53.9646 10.7506L59.5921 20.2096C60.3095 21.4306 60.0621 22.9756 58.9954 23.9266L54.5891 27.8266C54.7895 29.5933 54.7895 31.3759 54.5891 33.1426L58.9954 37.0426C60.0621 37.9966 60.3095 39.5386 59.5921 40.7596L53.9646 50.2186C53.6119 50.8116 53.0608 51.2698 52.4027 51.517C51.7446 51.7642 51.0191 51.7856 50.3468 51.5776L44.6667 49.8226C43.1922 50.8766 41.6013 51.7681 39.9234 52.4806L38.6464 58.1176C38.4956 58.7854 38.1142 59.3833 37.5654 59.8121C37.0165 60.2409 36.3332 60.475 35.6285 60.4756ZM29.9886 18.4756C26.7083 18.4756 23.5624 19.7399 21.2429 21.9903C18.9234 24.2407 17.6203 27.293 17.6203 30.4756C17.6203 33.6582 18.9234 36.7104 21.2429 38.9609C23.5624 41.2113 26.7083 42.4756 29.9886 42.4756C33.2689 42.4756 36.4148 41.2113 38.7343 38.9609C41.0538 36.7104 42.3569 33.6582 42.3569 30.4756C42.3569 27.293 41.0538 24.2407 38.7343 21.9903C36.4148 19.7399 33.2689 18.4756 29.9886 18.4756Z" fill="white"/>
</svg>
