<svg width="41" height="41" viewBox="0 0 41 41" fill="none" xmlns="http://www.w3.org/2000/svg">
<path d="M18.6483 1.76643C19.2883 0.0785071 21.7102 0.0785071 22.3522 1.76643L26.492 13.2339C26.6364 13.6075 26.8907 13.9285 27.2214 14.1545C27.552 14.3805 27.9434 14.5009 28.3439 14.4999H38.5174C40.3974 14.4999 41.2173 16.8398 39.7394 17.9857L32.4997 24.4994C32.1754 24.7487 31.9384 25.0943 31.8227 25.4867C31.707 25.879 31.7186 26.298 31.8557 26.6833L34.4996 37.8888C35.1436 39.6887 33.0597 41.2347 31.4838 40.1267L21.6502 33.887C21.3134 33.6503 20.9118 33.5233 20.5002 33.5233C20.0886 33.5233 19.6871 33.6503 19.3503 33.887L9.51673 40.1267C7.9428 41.2347 5.85689 39.6867 6.50086 37.8888L9.14475 26.6833C9.2819 26.298 9.29346 25.879 9.17776 25.4867C9.06207 25.0943 8.82507 24.7487 8.50078 24.4994L1.2611 17.9857C-0.218838 16.8398 0.605125 14.4999 2.48104 14.4999H12.6546C13.0552 14.5012 13.4467 14.3809 13.7774 14.1548C14.1081 13.9288 14.3623 13.6076 14.5065 13.2339L18.6463 1.76643H18.6483Z" fill="#6B7B42"/>
</svg>
