<svg width="32" height="33" viewBox="0 0 32 33" fill="none" xmlns="http://www.w3.org/2000/svg">
<path d="M14.427 1.60792C14.9357 0.26611 16.861 0.26611 17.3713 1.60792L20.6623 10.724C20.7771 11.0209 20.9792 11.2761 21.2421 11.4558C21.5049 11.6354 21.8161 11.7312 22.1344 11.7303H30.2219C31.7163 11.7303 32.3681 13.5904 31.1933 14.5014L25.4381 19.6795C25.1803 19.8776 24.9919 20.1524 24.8999 20.4643C24.808 20.7762 24.8171 21.1092 24.9262 21.4155L27.0279 30.3233C27.5398 31.7542 25.8832 32.9831 24.6305 32.1024L16.8133 27.1421C16.5456 26.954 16.2264 26.853 15.8991 26.853C15.5719 26.853 15.2527 26.954 14.985 27.1421L7.16783 32.1024C5.91664 32.9831 4.25845 31.7526 4.77037 30.3233L6.87212 21.4155C6.98115 21.1092 6.99034 20.7762 6.89837 20.4643C6.8064 20.1524 6.618 19.8776 6.3602 19.6795L0.605032 14.5014C-0.571439 13.5904 0.0835688 11.7303 1.57482 11.7303H9.66226C9.98069 11.7314 10.2919 11.6357 10.5548 11.456C10.8177 11.2763 11.0198 11.0211 11.1344 10.724L14.4254 1.60792H14.427Z" fill="#F5C337"/>
</svg>
