<svg width="54" height="58" viewBox="0 0 54 58" fill="none" xmlns="http://www.w3.org/2000/svg">
<path fill-rule="evenodd" clip-rule="evenodd" d="M0.603843 1.45101C0.267232 1.78762 0.078125 2.24417 0.078125 2.72021V44.0032C0.078125 44.4793 0.267232 44.9358 0.603843 45.2724C0.940455 45.609 1.397 45.7982 1.87304 45.7982H16.2579C16.5034 45.7978 16.7463 45.8478 16.9717 45.945C17.1971 46.0423 17.4001 46.1847 17.5682 46.3635L25.6945 57.1241C25.8624 57.3025 26.0649 57.4446 26.2898 57.5418C26.5146 57.6389 26.7569 57.6891 27.0018 57.6891C27.2468 57.6891 27.4891 57.6389 27.7139 57.5418C27.9387 57.4446 28.1413 57.3025 28.3091 57.1241L35.4354 46.3635C35.6036 46.1847 35.8066 46.0423 36.032 45.945C36.2574 45.8478 36.5003 45.7978 36.7457 45.7982H52.1306C52.3663 45.7982 52.5998 45.7517 52.8175 45.6615C53.0353 45.5713 53.2332 45.4391 53.3998 45.2724C53.5665 45.1058 53.6987 44.9079 53.7889 44.6901C53.8791 44.4724 53.9256 44.239 53.9256 44.0032V2.72021C53.9256 2.24417 53.7364 1.78762 53.3998 1.45101C53.0632 1.1144 52.6067 0.925293 52.1306 0.925293H1.87304C1.397 0.925293 0.940455 1.1144 0.603843 1.45101ZM31.9777 19.0665L27.0019 10.0751L22.0261 19.0665L13.0348 24.0423L22.0261 29.018L27.0019 38.0094L31.9777 29.018L40.969 24.0423L31.9777 19.0665Z" fill="white"/>
</svg>
