<svg width="55" height="51" viewBox="0 0 55 51" fill="none" xmlns="http://www.w3.org/2000/svg">
<path d="M19.5352 8.80329V9.69615H28.4637V8.80329C28.4637 7.61929 27.9934 6.48378 27.1562 5.64657C26.319 4.80935 25.1834 4.33901 23.9994 4.33901C22.8154 4.33901 21.6799 4.80935 20.8427 5.64657C20.0055 6.48378 19.5352 7.61929 19.5352 8.80329ZM15.9637 9.69615V8.80329C15.9637 6.67209 16.8103 4.62817 18.3173 3.12118C19.8243 1.6142 21.8682 0.767578 23.9994 0.767578C26.1306 0.767578 28.1746 1.6142 29.6815 3.12118C31.1885 4.62817 32.0352 6.67209 32.0352 8.80329V9.69615H45.428C45.9016 9.69615 46.3558 9.88429 46.6907 10.2192C47.0256 10.5541 47.2137 11.0083 47.2137 11.4819C47.2137 11.9555 47.0256 12.4097 46.6907 12.7446C46.3558 13.0794 45.9016 13.2676 45.428 13.2676H42.7352L39.3566 42.8533C39.1074 45.0322 38.0651 47.0432 36.4283 48.5028C34.7915 49.9625 32.6747 50.7686 30.4816 50.7676H17.5173C15.3242 50.7686 13.2074 49.9625 11.5706 48.5028C9.93379 47.0432 8.89144 45.0322 8.6423 42.8533L5.26373 13.2676H2.57087C2.09727 13.2676 1.64307 13.0794 1.30818 12.7446C0.973293 12.4097 0.785156 11.9555 0.785156 11.4819C0.785156 11.0083 0.973293 10.5541 1.30818 10.2192C1.64307 9.88429 2.09727 9.69615 2.57087 9.69615H15.9637ZM20.428 21.3033C20.428 20.8297 20.2399 20.3755 19.905 20.0406C19.5701 19.7057 19.1159 19.5176 18.6423 19.5176C18.1687 19.5176 17.7145 19.7057 17.3796 20.0406C17.0447 20.3755 16.8566 20.8297 16.8566 21.3033V39.1604C16.8566 39.634 17.0447 40.0882 17.3796 40.4231C17.7145 40.758 18.1687 40.9461 18.6423 40.9461C19.1159 40.9461 19.5701 40.758 19.905 40.4231C20.2399 40.0882 20.428 39.634 20.428 39.1604V21.3033ZM29.3566 19.5176C28.883 19.5176 28.4288 19.7057 28.0939 20.0406C27.759 20.3755 27.5709 20.8297 27.5709 21.3033V39.1604C27.5709 39.634 27.759 40.0882 28.0939 40.4231C28.4288 40.758 28.883 40.9461 29.3566 40.9461C29.8302 40.9461 30.2844 40.758 30.6193 40.4231C30.9542 40.0882 31.1423 39.634 31.1423 39.1604V21.3033C31.1423 20.8297 30.9542 20.3755 30.6193 20.0406C30.2844 19.7057 29.8302 19.5176 29.3566 19.5176Z" fill="#DC3434"/>
</svg>
