<svg width="56" height="51" viewBox="0 0 56 51" fill="none" xmlns="http://www.w3.org/2000/svg">
<path d="M13.3639 0.527344C10.6013 0.527344 7.95174 1.62481 5.99824 3.57832C4.04473 5.53182 2.94727 8.18134 2.94727 10.944V15.1107C2.94727 15.6632 3.16676 16.1931 3.55746 16.5838C3.94816 16.9745 4.47806 17.194 5.0306 17.194C5.58313 17.194 6.11304 16.9745 6.50374 16.5838C6.89444 16.1931 7.11393 15.6632 7.11393 15.1107V10.944C7.11393 9.28641 7.77241 7.6967 8.94452 6.52459C10.1166 5.35249 11.7063 4.69401 13.3639 4.69401H17.5306C18.0831 4.69401 18.613 4.47452 19.0037 4.08382C19.3944 3.69311 19.6139 3.16321 19.6139 2.61068C19.6139 2.05814 19.3944 1.52824 19.0037 1.13754C18.613 0.746838 18.0831 0.527344 17.5306 0.527344H13.3639ZM38.3639 0.527344C37.8114 0.527344 37.2815 0.746838 36.8908 1.13754C36.5001 1.52824 36.2806 2.05814 36.2806 2.61068C36.2806 3.16321 36.5001 3.69311 36.8908 4.08382C37.2815 4.47452 37.8114 4.69401 38.3639 4.69401H42.5306C44.1882 4.69401 45.7779 5.35249 46.95 6.52459C48.1221 7.6967 48.7806 9.28641 48.7806 10.944V15.1107C48.7806 15.6632 49.0001 16.1931 49.3908 16.5838C49.7815 16.9745 50.3114 17.194 50.8639 17.194C51.4165 17.194 51.9464 16.9745 52.3371 16.5838C52.7278 16.1931 52.9473 15.6632 52.9473 15.1107V10.944C52.9473 8.18134 51.8498 5.53182 49.8963 3.57832C47.9428 1.62481 45.2933 0.527344 42.5306 0.527344H38.3639ZM7.11393 35.944C7.11393 35.3915 6.89444 34.8616 6.50374 34.4709C6.11304 34.0802 5.58313 33.8607 5.0306 33.8607C4.47806 33.8607 3.94816 34.0802 3.55746 34.4709C3.16676 34.8616 2.94727 35.3915 2.94727 35.944V40.1107C2.94727 42.8734 4.04473 45.5229 5.99824 47.4764C7.95174 49.4299 10.6013 50.5273 13.3639 50.5273H17.5306C18.0831 50.5273 18.613 50.3079 19.0037 49.9172C19.3944 49.5265 19.6139 48.9965 19.6139 48.444C19.6139 47.8915 19.3944 47.3616 19.0037 46.9709C18.613 46.5802 18.0831 46.3607 17.5306 46.3607H13.3639C11.7063 46.3607 10.1166 45.7022 8.94452 44.5301C7.77241 43.358 7.11393 41.7683 7.11393 40.1107V35.944ZM52.9473 35.944C52.9473 35.3915 52.7278 34.8616 52.3371 34.4709C51.9464 34.0802 51.4165 33.8607 50.8639 33.8607C50.3114 33.8607 49.7815 34.0802 49.3908 34.4709C49.0001 34.8616 48.7806 35.3915 48.7806 35.944V40.1107C48.7806 41.7683 48.1221 43.358 46.95 44.5301C45.7779 45.7022 44.1882 46.3607 42.5306 46.3607H38.3639C37.8114 46.3607 37.2815 46.5802 36.8908 46.9709C36.5001 47.3616 36.2806 47.8915 36.2806 48.444C36.2806 48.9965 36.5001 49.5265 36.8908 49.9172C37.2815 50.3079 37.8114 50.5273 38.3639 50.5273H42.5306C45.2933 50.5273 47.9428 49.4299 49.8963 47.4764C51.8498 45.5229 52.9473 42.8734 52.9473 40.1107V35.944Z" fill="#ACC270"/>
<path d="M33.4022 12.4374C33.1219 11.9604 32.7217 11.5648 32.2414 11.29C31.7611 11.0152 31.2173 10.8706 30.664 10.8707H25.2961C24.7532 10.8708 24.2195 11.0101 23.7458 11.2753C23.2721 11.5404 22.8743 11.9226 22.5903 12.3852L21.3552 14.9977H18.4194C17.2027 14.9977 16.0359 15.481 15.1756 16.3413C14.3153 17.2016 13.832 18.3684 13.832 19.5851V32.9941C13.832 34.2108 14.3153 35.3776 15.1756 36.2379C16.0359 37.0982 17.2027 37.5815 18.4194 37.5815H37.4744C38.691 37.5815 39.8578 37.0982 40.7181 36.2379C41.5784 35.3776 42.0617 34.2108 42.0617 32.9941V19.5851C42.0617 18.3684 41.5784 17.2016 40.7181 16.3413C39.8578 15.481 38.691 14.9977 37.4744 14.9977H34.5526L33.4022 12.4374ZM21.5952 25.5839C21.5952 23.8993 22.2644 22.2837 23.4555 21.0925C24.6467 19.9014 26.2623 19.2322 27.9469 19.2322C29.6314 19.2322 31.247 19.9014 32.4382 21.0925C33.6293 22.2837 34.2985 23.8993 34.2985 25.5839C34.2985 27.2684 33.6293 28.884 32.4382 30.0752C31.247 31.2663 29.6314 31.9355 27.9469 31.9355C26.2623 31.9355 24.6467 31.2663 23.4555 30.0752C22.2644 28.884 21.5952 27.2684 21.5952 25.5839Z" fill="#ACC270"/>
<path d="M30.2046 23.4241C30.8035 24.0229 31.14 24.8352 31.14 25.6822C31.14 26.5291 30.8035 27.3414 30.2046 27.9403C29.6058 28.5392 28.7935 28.8756 27.9465 28.8756C27.0996 28.8756 26.2873 28.5392 25.6884 27.9403C25.0895 27.3414 24.7531 26.5291 24.7531 25.6822C24.7531 24.8352 25.0895 24.0229 25.6884 23.4241C26.2873 22.8252 27.0996 22.4887 27.9465 22.4887C28.7935 22.4887 29.6058 22.8252 30.2046 23.4241Z" fill="#ACC270"/>
</svg>
