<svg width="45" height="41" viewBox="0 0 45 41" fill="none" xmlns="http://www.w3.org/2000/svg">
<path d="M12.8075 13.6252L14.785 0.500183H4.5L0.2025 11.7502C0.0699999 12.1502 0 12.5652 0 13.0002C0 15.7602 2.875 18.0002 6.4275 18.0002C9.7025 18.0002 12.41 16.0902 12.8075 13.6252ZM22.5 18.0002C26.05 18.0002 28.9275 15.7602 28.9275 13.0002C28.9275 12.8977 28.92 12.7952 28.915 12.6977L27.6425 0.500183H17.3575L16.0825 12.6877C16.0766 12.7918 16.0733 12.896 16.0725 13.0002C16.0725 15.7602 18.95 18.0002 22.5 18.0002ZM35 20.6152V30.5002H10V20.6302C8.905 21.0252 7.7 21.2502 6.4275 21.2502C5.94 21.2502 5.4675 21.1927 5 21.1277V37.0002C5 38.9252 6.5725 40.5002 8.495 40.5002H36.5C38.425 40.5002 40 38.9227 40 37.0002V21.1302C39.5274 21.2027 39.0505 21.2437 38.5725 21.2527C37.3535 21.2515 36.1442 21.0357 35 20.6152ZM44.8 11.7502L40.4975 0.500183H30.215L32.19 13.6052C32.575 16.0802 35.2825 18.0002 38.5725 18.0002C42.1225 18.0002 45 15.7602 45 13.0002C45 12.5652 44.93 12.1502 44.8 11.7502Z" fill="#6B7B42"/>
</svg>
