<svg width="55" height="51" viewBox="0 0 55 51" fill="none" xmlns="http://www.w3.org/2000/svg">
<path d="M32.3792 0.430021C32.7295 0.25887 33.1209 0.189582 33.5086 0.230053C33.8964 0.270524 34.265 0.419127 34.5725 0.658923L53.3008 15.2254C53.5422 15.4129 53.7394 15.6513 53.8782 15.9237C54.0171 16.1961 54.0942 16.4957 54.1041 16.8012C54.1141 17.1067 54.0566 17.4107 53.9357 17.6915C53.8148 17.9723 53.6336 18.223 53.4048 18.4259L34.6765 35.0732C34.3766 35.3396 34.0061 35.5136 33.6096 35.5742C33.2131 35.6349 32.8075 35.5797 32.4416 35.4153C32.0758 35.2508 31.7652 34.9841 31.5474 34.6473C31.3296 34.3104 31.2138 33.9178 31.2139 33.5167V25.4261C30.2317 25.5926 28.9498 25.8839 27.4516 26.3833C23.8183 27.5986 18.9031 30.0416 13.9588 34.99C13.6563 35.2937 13.2674 35.4965 12.8452 35.5708C12.4231 35.6451 11.9883 35.5872 11.6003 35.405C11.2122 35.2229 10.89 34.9253 10.6774 34.5531C10.4649 34.1808 10.3725 33.752 10.4129 33.3253C11.0081 26.787 12.9142 22.0175 15.507 18.5798C17.7325 15.6127 20.7567 13.3405 24.2261 12.0291C26.4637 11.181 28.823 10.6976 31.2139 10.5974V2.30285C31.2131 1.91285 31.3219 1.53047 31.528 1.19933C31.734 0.868194 32.029 0.601623 32.3792 0.430021ZM0 14.7884C0 12.0289 1.0962 9.38246 3.04744 7.43122C4.99869 5.47997 7.64514 4.38378 10.4046 4.38378H18.7283C19.2802 4.38378 19.8095 4.60302 20.1998 4.99327C20.59 5.38351 20.8092 5.91281 20.8092 6.4647C20.8092 7.0166 20.59 7.54589 20.1998 7.93614C19.8095 8.32638 19.2802 8.54562 18.7283 8.54562H10.4046C8.74894 8.54562 7.16106 9.20334 5.99031 10.3741C4.81957 11.5448 4.16185 13.1327 4.16185 14.7884V39.7595C4.16185 41.4152 4.81957 43.003 5.99031 44.1738C7.16106 45.3445 8.74894 46.0023 10.4046 46.0023H35.3757C37.0314 46.0023 38.6193 45.3445 39.79 44.1738C40.9608 43.003 41.6185 41.4152 41.6185 39.7595V35.5976C41.6185 35.0457 41.8377 34.5164 42.228 34.1262C42.6182 33.736 43.1475 33.5167 43.6994 33.5167C44.2513 33.5167 44.7806 33.736 45.1708 34.1262C45.5611 34.5164 45.7803 35.0457 45.7803 35.5976V39.7595C45.7803 42.519 44.6841 45.1654 42.7329 47.1167C40.7816 49.0679 38.1352 50.1641 35.3757 50.1641H10.4046C7.64514 50.1641 4.99869 49.0679 3.04744 47.1167C1.0962 45.1654 0 42.519 0 39.7595V14.7884Z" fill="#999999"/>
</svg>
