<svg width="55" height="51" viewBox="0 0 55 51" fill="none" xmlns="http://www.w3.org/2000/svg">
<path d="M25 0.109406C11.2 0.109406 0 11.3094 0 25.1094C0 38.9094 11.2 50.1094 25 50.1094C38.8 50.1094 50 38.9094 50 25.1094C50 11.3094 38.8 0.109406 25 0.109406ZM5 25.1094C5 14.0594 13.95 5.10941 25 5.10941C29.625 5.10941 33.875 6.68441 37.25 9.33441L9.225 37.3594C6.47942 33.8672 4.99097 29.5516 5 25.1094ZM25 45.1094C20.375 45.1094 16.125 43.5344 12.75 40.8844L40.775 12.8594C43.5206 16.3516 45.009 20.6672 45 25.1094C45 36.1594 36.05 45.1094 25 45.1094Z" fill="#999999"/>
</svg>
