<svg width="179" height="185" viewBox="0 0 179 185" fill="none" xmlns="http://www.w3.org/2000/svg">
<path fill-rule="evenodd" clip-rule="evenodd" d="M105.828 -58.7345C113.293 -62.7408 121.68 -64.8366 130.203 -64.8256C138.653 -64.8198 146.966 -62.7437 154.376 -58.7883C161.787 -54.8329 168.057 -49.1254 172.611 -42.1907C180.897 -43.9994 189.517 -43.7387 197.672 -41.4328C205.826 -39.1268 213.251 -34.8505 219.255 -29.0009C225.259 -23.1514 229.648 -15.9183 232.015 -7.97371C234.382 -0.0290836 234.65 8.36946 232.793 16.4418C239.957 20.8744 245.856 26.998 249.942 34.2446C254.028 41.4911 256.169 49.6257 256.166 57.8937C256.16 66.1259 254.029 74.2245 249.969 81.4442C245.91 88.6639 240.051 94.773 232.933 99.2092C234.79 107.282 234.522 115.68 232.155 123.625C229.788 131.569 225.399 138.802 219.395 144.652C213.39 150.501 205.966 154.778 197.812 157.084C189.657 159.39 181.037 159.65 172.751 157.842C168.201 164.821 161.916 170.568 154.478 174.549C147.039 178.53 138.69 180.615 130.203 180.613C121.788 180.547 113.524 178.428 106.165 174.451C98.806 170.473 92.587 164.763 88.0756 157.842C79.7621 159.705 71.099 159.482 62.8984 157.192C54.6978 154.903 47.2281 150.622 41.1894 144.752C35.2565 138.896 30.9296 131.682 28.6062 123.771C26.2829 115.861 26.0378 107.509 27.8933 99.4819C20.6575 95.0695 14.6909 88.9384 10.5536 81.664C6.4163 74.3895 4.24389 66.2102 4.24023 57.8937C4.26755 49.6003 6.45122 41.4488 10.5874 34.2001C14.7236 26.9515 20.6775 20.8419 27.8933 16.4418C26.02 8.42639 26.2429 0.0809411 28.5416 -7.82874C30.8403 -15.7384 35.1411 -22.959 41.0494 -28.828C50.0513 -37.6537 62.1573 -42.8198 74.9195 -43.2816C79.1604 -43.3454 83.3927 -42.8873 87.5158 -41.918C92.0615 -48.9422 98.362 -54.7282 105.828 -58.7345ZM182.088 40.2646C187.553 34.9396 187.553 26.3061 182.088 20.9811C176.622 15.6561 167.76 15.6561 162.294 20.9811L116.207 65.8813L98.1122 48.2521C92.6464 42.9271 83.7847 42.9271 78.319 48.2521C72.8533 53.5771 72.8533 62.2106 78.319 67.5356L106.311 94.8065C111.777 100.132 120.638 100.132 126.104 94.8065L182.088 40.2646Z" stroke="#6B7B42" stroke-opacity="0.06" stroke-width="7" stroke-linecap="round" stroke-linejoin="round"/>
</svg>
